<svg xmlns="http://www.w3.org/2000/svg" viewBox="0 0 485.032 390.267"><title>arrow</title><path d="M302.9,454.768a28.09,28.09,0,0,1-19.862-47.917L401.663,288.224H41.589a28.09,28.09,0,0,1,0-56.18H401.663L283.036,113.417a28.09,28.09,0,0,1,39.725-39.725L489.339,240.271a28.173,28.173,0,0,1,0,39.725L322.761,446.575A27.89,27.89,0,0,1,302.9,454.768Z" transform="translate(-13 -65)"/><path d="M302.9,66a27.391,27.391,0,0,1,19.509,8.046L473.942,225.581l15.044,15.044a27.62,27.62,0,0,1,0,39.017l-15.044,15.044L322.407,446.221A27.59,27.59,0,0,1,283.389,407.2L401.163,289.43l1.707-1.707H41.59a27.59,27.59,0,1,1,0-55.179H402.87l-1.707-1.707L283.389,113.064A27.555,27.555,0,0,1,302.9,66m0-1a28.505,28.505,0,0,0-20.216,8.339h0a28.675,28.675,0,0,0,0,40.432L400.456,231.544H41.59A28.673,28.673,0,0,0,13,260.134h0a28.673,28.673,0,0,0,28.59,28.589H400.456L282.682,406.5a28.674,28.674,0,0,0,0,40.431h0a28.674,28.674,0,0,0,40.432,0L474.649,295.393l15.044-15.043a28.673,28.673,0,0,0,0-40.432l-15.044-15.044L323.114,73.339A28.5,28.5,0,0,0,302.9,65Z" transform="translate(-13 -65)"/></svg>