<svg xmlns="http://www.w3.org/2000/svg" viewBox="0 0 285.797 494.397"><title>Arrow-right</title><path d="M148.706,502.7a11.211,11.211,0,0,1-7.988-3.271l-23.753-23.754a11.2,11.2,0,0,1-3.271-8.127,11.773,11.773,0,0,1,3.473-8.223L322.514,253.978,121.987,53.451a11.576,11.576,0,0,1,.2-16.35l24.325-24.326A11.754,11.754,0,0,1,154.877,9.3a11.205,11.205,0,0,1,7.988,3.271L395.22,244.926a11.578,11.578,0,0,1-.2,16.35L157.068,499.225a11.754,11.754,0,0,1-8.361,3.474Z" transform="translate(-113.194 -8.801)"/><path d="M154.877,9.8a10.708,10.708,0,0,1,7.635,3.125l208.6,208.6,23.754,23.753a10.706,10.706,0,0,1,3.124,7.768,11.275,11.275,0,0,1-3.327,7.875l-24.325,24.325L156.715,498.871a11.257,11.257,0,0,1-8.009,3.328,10.708,10.708,0,0,1-7.634-3.125l-23.754-23.753a10.7,10.7,0,0,1-3.123-7.768,11.27,11.27,0,0,1,3.326-7.875L322.514,254.685l.707-.707-.707-.707L122.341,53.1a11.076,11.076,0,0,1,.2-15.643l24.325-24.325A11.257,11.257,0,0,1,154.877,9.8m0-1a12.311,12.311,0,0,0-8.715,3.621L121.836,36.747a12.1,12.1,0,0,0-.2,17.057L321.807,253.978,116.814,458.971a12.1,12.1,0,0,0-.2,17.057l23.754,23.753a11.737,11.737,0,0,0,8.341,3.418,12.314,12.314,0,0,0,8.716-3.621L371.045,285.955,395.37,261.63a12.1,12.1,0,0,0,.2-17.057L371.819,220.82l-208.6-208.6A11.738,11.738,0,0,0,154.877,8.8Z" transform="translate(-113.194 -8.801)"/></svg>