<svg xmlns="http://www.w3.org/2000/svg" viewBox="0 0 285.797 494.397"><title>Arrow-left</title><path d="M357.308,502.7a11.214,11.214,0,0,1-7.989-3.271L116.965,267.073a11.2,11.2,0,0,1-3.27-8.127,11.766,11.766,0,0,1,3.472-8.222L355.116,12.775A11.755,11.755,0,0,1,363.479,9.3a11.207,11.207,0,0,1,7.987,3.271L395.22,36.326a11.578,11.578,0,0,1-.2,16.35L189.67,258.022,390.2,458.55a11.576,11.576,0,0,1-.2,16.349l-24.325,24.326a11.752,11.752,0,0,1-8.361,3.474Z" transform="translate(-113.194 -8.801)"/><path d="M363.478,9.8a10.708,10.708,0,0,1,7.634,3.125l23.754,23.753a11.076,11.076,0,0,1-.2,15.643L189.67,257.315l-.707.707.707.707L389.843,458.9a11.077,11.077,0,0,1-.2,15.643l-24.326,24.325a11.255,11.255,0,0,1-8.008,3.328,10.71,10.71,0,0,1-7.635-3.125l-208.6-208.6L117.318,266.72a10.7,10.7,0,0,1-3.123-7.768,11.27,11.27,0,0,1,3.326-7.875l24.326-24.325L355.469,13.129A11.257,11.257,0,0,1,363.478,9.8m0-1a12.315,12.315,0,0,0-8.716,3.621L141.139,226.045,116.814,250.37a12.1,12.1,0,0,0-.2,17.057l23.754,23.754,208.6,208.6a11.738,11.738,0,0,0,8.342,3.418,12.311,12.311,0,0,0,8.715-3.621l24.326-24.325a12.1,12.1,0,0,0,.2-17.057L190.377,258.022,395.37,53.029a12.1,12.1,0,0,0,.2-17.057L371.819,12.219A11.737,11.737,0,0,0,363.478,8.8Z" transform="translate(-113.194 -8.801)"/></svg>