<svg xmlns="http://www.w3.org/2000/svg" viewBox="0 0 85.56 86.267"><title>Cross</title><polygon points="42.426 50.205 7.778 84.853 0.707 77.782 35.355 43.134 0.707 8.485 7.778 1.414 42.426 36.062 77.782 0.707 84.853 7.778 49.498 43.134 84.853 78.489 77.782 85.56 42.426 50.205"/><path d="M85.648,8.281l6.364,6.364L57.364,49.293,56.657,50l.707.707L92.012,85.355l-6.364,6.364L51,57.071l-.707-.707-.707.707L15.645,91.012,9.281,84.648,43.222,50.707,43.929,50l-.707-.707L9.281,15.352l6.364-6.364L49.586,42.929l.707.707L51,42.929,85.648,8.281m0-1.415L50.293,42.222,15.645,7.574,7.867,15.352,42.515,50,7.867,84.648l7.778,7.778L50.293,57.778,85.648,93.133l7.778-7.778L58.071,50,93.426,14.645,85.648,6.866Z" transform="translate(-7.867 -6.866)"/></svg>