<svg xmlns="http://www.w3.org/2000/svg" viewBox="0 0 512 512"><title>moon</title><circle cx="256" cy="256" r="256" fill="#0d071e"/><path d="M229.459,281.114c97.733,97.733,254.168-11.63,202.328,62.559a191.428,191.428,0,0,1-21.574,25.716c-74.29,74.291-194.739,74.291-269.029,0s-74.291-194.739,0-269.029A191.354,191.354,0,0,1,166.9,78.786C241.089,26.945,124.368,176.023,229.459,281.114Z" transform="translate(0 0)" fill="#ffd400"/><polygon points="293.861 181.446 270.506 154.709 267.847 189.898 235.312 203.149 267.847 217.251 270.506 251.59 293.861 225.703 327.452 233.088 309.938 203.575 327.452 173.211 293.861 181.446" fill="#bdccd4"/><polygon points="439.34 255.066 415.95 273.91 445.61 277.342 455.717 305.293 468.733 278.263 497.853 277.171 476.754 256.556 484.128 228.407 458.588 242.219 433.509 226.391 439.34 255.066" fill="#bdccd4"/><polygon points="255.753 45.819 245.333 54.213 258.546 55.742 263.048 68.194 268.847 56.152 281.819 55.666 272.42 46.482 275.705 33.943 264.327 40.096 253.155 33.045 255.753 45.819" fill="#bdccd4"/><polygon points="59.118 339.846 48.698 348.241 61.911 349.77 66.413 362.221 72.212 350.18 85.184 349.694 75.785 340.51 79.07 327.971 67.693 334.124 56.52 327.073 59.118 339.846" fill="#bdccd4"/><circle cx="238.5" cy="374.5" r="47.5" fill="#bdccd4"/><circle cx="293.5" cy="413.5" r="45.5" fill="#bdccd4"/><circle cx="231" cy="438" r="50" fill="#bdccd4"/><circle cx="185" cy="388" r="41" fill="#bdccd4"/><circle cx="140.5" cy="413.5" r="28.5" fill="#bdccd4"/><circle cx="178.5" cy="437.5" r="34.5" fill="#bdccd4"/></svg>