<svg xmlns="http://www.w3.org/2000/svg" viewBox="0 0 485.965 484.095"><title>pen</title><path d="M152.037,77.611,83.171,146.477c-6.758,6.758-8.1,16.471-2.989,21.585l258.7,258.7c5.114,5.114,14.827,3.769,21.585-2.989l68.866-68.866c6.758-6.758,8.1-16.471,2.989-21.585l-258.7-258.7C168.508,69.508,158.795,70.853,152.037,77.611Z" transform="translate(-13.045 -8.419)" stroke="#000" stroke-miterlimit="10"/><path d="M442.129,359.68l-76.014,76.014c-3.954,3.954-3.281,9.67,1.228,10.43L498.2,491.7,452.559,360.9C451.8,356.4,446.082,355.727,442.129,359.68Z" transform="translate(-13.045 -8.419)" stroke="#000" stroke-miterlimit="10"/><path d="M72.846,139.235l71.015-71.014c6.167-6.167,7.394-15.031,2.727-19.7l-36.769-36.77c-4.667-4.667-13.531-3.439-19.7,2.728L19.106,85.5c-6.167,6.167-7.394,15.031-2.727,19.7l36.769,36.77C57.815,146.629,66.679,145.4,72.846,139.235Z" transform="translate(-13.045 -8.419)" stroke="#000" stroke-miterlimit="10"/></svg>