<svg xmlns="http://www.w3.org/2000/svg" viewBox="0 0 480 507.752"><title>reset</title><path d="M256,511.376c-63.662,0-123.625-23.069-168.845-64.957C41.27,403.915,16,347.208,16,286.745a25.268,25.268,0,0,1,25.031-25.5,25.269,25.269,0,0,1,25.03,25.5c0,95.74,85.206,173.631,189.939,173.631,53.511,0,104.835-20.83,140.812-57.149a24.708,24.708,0,0,1,35.4.164,25.841,25.841,0,0,1-.161,36.062,239.354,239.354,0,0,1-78.592,52.638A252.341,252.341,0,0,1,256,511.376Z" transform="translate(-16 -3.624)"/><polygon points="288.075 394.794 454.969 283.121 466.481 486.201 288.075 394.794"/><path d="M470.969,253.755a25.269,25.269,0,0,1-25.03-25.5c0-95.74-85.206-173.631-189.939-173.631-53.51,0-104.835,20.83-140.812,57.149a24.707,24.707,0,0,1-35.4-.164,25.839,25.839,0,0,1,.162-36.062,239.328,239.328,0,0,1,78.592-52.638A252.347,252.347,0,0,1,256,3.624c63.662,0,123.625,23.069,168.846,64.958C470.731,111.085,496,167.792,496,228.255A25.269,25.269,0,0,1,470.969,253.755Z" transform="translate(-16 -3.624)"/><polygon points="191.925 112.958 25.031 224.631 13.519 21.551 191.925 112.958"/></svg>