<svg xmlns="http://www.w3.org/2000/svg" viewBox="0 0 488.553 488.553"><title>sun</title><path d="M278.328,15.235,238.153,68.87a10.012,10.012,0,0,1-14.2,1.87L171.265,29.33a10.013,10.013,0,0,0-16.128,6.681l-7.975,66.537a10.013,10.013,0,0,1-11.363,8.719l-66.334-9.518A10.012,10.012,0,0,0,58.838,115.6L85.2,177.208a10.013,10.013,0,0,1-5.481,13.233L17.514,215.365a10.012,10.012,0,0,0-2.279,17.307L68.87,272.847a10.012,10.012,0,0,1,1.87,14.2L29.33,339.735a10.013,10.013,0,0,0,6.681,16.128l66.537,7.975a10.013,10.013,0,0,1,8.719,11.363l-9.518,66.334A10.012,10.012,0,0,0,115.6,452.162l61.61-26.363a10.013,10.013,0,0,1,13.233,5.481l24.924,62.206a10.012,10.012,0,0,0,17.307,2.279l40.175-53.635a10.012,10.012,0,0,1,14.2-1.87l52.688,41.41a10.013,10.013,0,0,0,16.128-6.681l7.975-66.537a10.013,10.013,0,0,1,11.363-8.719l66.334,9.518A10.012,10.012,0,0,0,452.162,395.4L425.8,333.792a10.013,10.013,0,0,1,5.481-13.233l62.206-24.924a10.012,10.012,0,0,0,2.279-17.307L442.13,238.153a10.012,10.012,0,0,1-1.87-14.2l41.41-52.688a10.013,10.013,0,0,0-6.681-16.128l-66.537-7.975a10.013,10.013,0,0,1-8.719-11.363l9.518-66.334A10.012,10.012,0,0,0,395.4,58.838L333.792,85.2a10.013,10.013,0,0,1-13.233-5.481L295.635,17.514A10.012,10.012,0,0,0,278.328,15.235Z" transform="translate(-11.224 -11.224)" fill="#f4ba00"/><circle cx="245.276" cy="245.276" r="151.5" fill="#f7df00"/><path d="M256.886,412.384c-86.33,0-156.565-70.235-156.565-156.565S170.556,99.253,256.886,99.253s156.565,70.235,156.565,156.566S343.217,412.384,256.886,412.384Zm0-288.131c-72.545,0-131.565,59.02-131.565,131.566s59.02,131.565,131.565,131.565,131.565-59.02,131.565-131.565S329.432,124.253,256.886,124.253Z" transform="translate(-11.224 -11.224)" fill="#fff"/></svg>