<svg xmlns="http://www.w3.org/2000/svg" viewBox="0 0 381.062 501.971"><title>Trash-can</title><path d="M137.53,491.016c0,8.591,5.6,15.555,12.516,15.555H362.954c6.912,0,12.516-6.964,12.516-15.555l28.888-380.993H108.642ZM305.786,178.789a14.293,14.293,0,0,1,14.251-14.251H343.79a14.293,14.293,0,0,1,14.251,14.251L338.2,422.25c0,7.838-5.16,14.251-11.467,14.251H307.624c-6.307,0-11.467-6.413-11.467-14.251ZM244.03,164.538h23.752a14.293,14.293,0,0,1,14.252,14.251L277.045,422.25c0,7.838-5.16,14.251-11.467,14.251H246.466C240.16,436.5,235,430.088,235,422.25l-5.22-243.461A14.293,14.293,0,0,1,244.03,164.538Zm-76.007,0h23.752a14.293,14.293,0,0,1,14.251,14.251l9.862,243.461c0,7.838-5.16,14.251-11.467,14.251H185.309c-6.307,0-11.467-6.413-11.467-14.251L153.771,178.789A14.293,14.293,0,0,1,168.023,164.538Z" transform="translate(-65.957 -5.1)" stroke="#000" stroke-miterlimit="10"/><path d="M423.465,54.683H370.247V20.035A14.68,14.68,0,0,0,355.416,5.6H155.208a14.68,14.68,0,0,0-14.83,14.435V54.683H90.723A23.121,23.121,0,0,0,67.669,77.737l-1.187,24.451H445.331l1.187-24.451A23.121,23.121,0,0,0,423.465,54.683ZM168.617,44a14.293,14.293,0,0,1,14.251-14.252h143.7A14.293,14.293,0,0,1,340.821,44V54.683h-172.2Z" transform="translate(-65.957 -5.1)" stroke="#000" stroke-miterlimit="10"/></svg>