<svg xmlns="http://www.w3.org/2000/svg" viewBox="0 0 454.306 470.819"><title>url</title><path d="M138.79,491.772a103.408,103.408,0,0,1-73.35-30.333l-6.2-6.205a103.962,103.962,0,0,1,0-146.7l49.455-49.455a25,25,0,0,1,35.356,35.356L94.592,343.892a53.962,53.962,0,0,0,0,75.988l6.2,6.2a53.795,53.795,0,0,0,75.988,0l98.91-98.911a53.789,53.789,0,0,0,0-75.987A25,25,0,0,1,311.05,215.83a103.85,103.85,0,0,1,0,146.7l-98.911,98.911A103.409,103.409,0,0,1,138.79,491.772Z" transform="translate(-28.949 -20.953)"/><path d="M218.833,304.219a24.921,24.921,0,0,1-17.678-7.323,103.849,103.849,0,0,1,0-146.7l98.91-98.91a103.851,103.851,0,0,1,146.7,0l6.2,6.2a103.962,103.962,0,0,1,0,146.7l-49.455,49.456a25,25,0,0,1-35.356-35.355l49.455-49.456a53.962,53.962,0,0,0,0-75.988l-6.2-6.2a53.794,53.794,0,0,0-75.987,0L236.51,185.553a53.794,53.794,0,0,0,0,75.988,25,25,0,0,1-17.677,42.678Z" transform="translate(-28.949 -20.953)"/></svg>